<svg version="1.1" preserveAspectRatio="none" xmlns="http://www.w3.org/2000/svg" width="500" height="500" viewBox="0 0 500 500"><rect width="100%" height="100%" fill="#121212" fill-opacity="1"/><svg viewBox="97.963 204.0534 375.3132 250.7424" width="333" height="222.47344138175797" x="83.5px" y="138.7633px" xmlns="http://www.w3.org/2000/svg" xmlns:xlink="http://www.w3.org/1999/xlink" preserveAspectRatio="none"><defs></defs><style>.companyName {fill:#E3E3E3;fill-opacity:1;}.icon1 {fill:#F1EC40;fill-opacity:1;}.icon2 {fill:#555555;fill-opacity:1;}.icon3 {fill:#AAAAAA;fill-opacity:1;}.icon3-str {stroke:#AAAAAA;stroke-opacity:1;}.text {fill:#E3E3E3;fill-opacity:1;}</style><g opacity="1" transform="rotate(0 185.795 434.7958)">
<svg width="199.6492" height="20" x="185.795" y="434.7958" version="1.1" preserveAspectRatio="none" viewBox="2.6 -28 358.55999999999995 35.92">
  <g transform="matrix(1 0 0 1 0 0)" class="text"><path id="id-6izo4zJp17" d="M5.60-28L5.60 0L2.60 0L2.60-28L5.60-28Z M14.80 0L14.80-20L17.80-20L17.80 0L14.80 0ZM14.68-27.28L17.92-27.28L17.92-23.36L14.68-23.36L14.68-27.28Z M41.80-14.64L38.76-14.64Q38.36-17.76 33.74-17.76Q29.12-17.76 29.12-14.88L29.12-14.88Q29.12-13.68 30.10-13.06Q31.08-12.44 32.56-12.04Q34.04-11.64 35.78-11.30Q37.52-10.96 39-10.34Q40.48-9.72 41.46-8.64Q42.44-7.56 42.44-5.68L42.44-5.68Q42.44-2.76 40.24-1.22Q38.04 0.32 34.28 0.32L34.28 0.32Q30.28 0.32 27.92-1.68L27.92-1.68Q25.76-3.44 25.60-6.28L25.60-6.28L28.72-6.28Q29-3.52 31.84-2.56L31.84-2.56Q32.88-2.24 33.90-2.24Q34.92-2.24 35.80-2.36Q36.68-2.48 37.52-2.80L37.52-2.80Q39.44-3.56 39.44-5.40L39.44-5.40Q39.44-6.64 38.46-7.30Q37.48-7.96 36-8.38Q34.52-8.80 32.78-9.14Q31.04-9.48 29.56-10.08Q28.08-10.68 27.10-11.72Q26.12-12.76 26.12-14.60L26.12-14.60Q26.12-17.32 28.10-18.82Q30.08-20.32 33.96-20.32L33.96-20.32Q37.64-20.32 39.76-18.56L39.76-18.56Q41.52-17.08 41.80-14.64L41.80-14.64Z M55.44 0L52.44 0L52.44-17.36L48.36-17.36L48.36-20L52.44-20L52.44-27.16L55.44-27.16L55.44-20L60.04-20L60.04-17.36L55.44-17.36L55.44 0Z M75.84-2.40L75.84-2.40Q79.88-2.40 81.64-5.76L81.64-5.76L84.92-5.76Q83.88-3.04 81.62-1.36Q79.36 0.32 75.80 0.32L75.80 0.32Q71.28 0.32 68.44-2.68L68.44-2.68Q65.68-5.60 65.68-10L65.68-10Q65.68-14.44 68.32-17.32L68.32-17.32Q71.12-20.32 75.60-20.32L75.60-20.32Q80.08-20.32 82.88-17.32L82.88-17.32Q85.52-14.44 85.52-10L85.52-10L85.52-8.80L68.76-8.80Q69.08-6.04 70.96-4.24L70.96-4.24Q72.88-2.40 75.84-2.40ZM75.60-17.60L75.60-17.60Q72.84-17.60 70.96-15.88L70.96-15.88Q69.20-14.24 68.80-11.60L68.80-11.60L82.40-11.60Q82-14.24 80.24-15.88L80.24-15.88Q78.36-17.60 75.60-17.60Z M93.20-20L96.20-20L96.20-16.88Q97.28-18.32 98.84-19.32Q100.40-20.32 102.40-20.32Q104.40-20.32 105.84-19.76Q107.28-19.20 108.36-18.08L108.36-18.08Q110.84-15.64 110.84-11.64L110.84-11.64L110.84 0L107.84 0L107.84-11.56Q107.84-14.32 106.28-15.96Q104.72-17.60 102.24-17.60L102.24-17.60Q99.72-17.60 97.96-15.92L97.96-15.92Q96.20-14.20 96.20-11.52L96.20-11.52L96.20 0L93.20 0L93.20-20Z M149.52-20L137.68 7.92L134.44 7.92L138.08-0.28L129.92-20L133.24-20L139.68-3.60L146.24-20L149.52-20Z M164.60-20.32L164.60-20.32Q169.08-20.32 171.88-17.32L171.88-17.32Q174.52-14.44 174.52-10L174.52-10Q174.52-5.56 171.88-2.68L171.88-2.68Q169.08 0.32 164.60 0.32L164.60 0.32Q160.12 0.32 157.32-2.68L157.32-2.68Q154.68-5.56 154.68-10L154.68-10Q154.68-14.44 157.32-17.32L157.32-17.32Q160.12-20.32 164.60-20.32ZM164.60-2.40L164.60-2.40Q167.84-2.40 169.72-4.64L169.72-4.64Q171.52-6.76 171.52-10L171.52-10Q171.52-13.24 169.72-15.36L169.72-15.36Q167.84-17.60 164.60-17.60L164.60-17.60Q161.36-17.60 159.48-15.36L159.48-15.36Q157.68-13.24 157.68-10L157.68-10Q157.68-6.76 159.48-4.64L159.48-4.64Q161.36-2.40 164.60-2.40Z M199.92 0L196.92 0L196.92-3.12Q195.84-1.68 194.28-0.68Q192.72 0.32 190.72 0.32Q188.72 0.32 187.28-0.24Q185.84-0.80 184.76-1.92L184.76-1.92Q182.28-4.36 182.28-8.36L182.28-8.36L182.28-20L185.28-20L185.28-8.44Q185.28-5.68 186.84-4.04Q188.40-2.40 190.88-2.40L190.88-2.40Q193.40-2.40 195.16-4.08L195.16-4.08Q196.92-5.80 196.92-8.48L196.92-8.48L196.92-20L199.92-20L199.92 0Z M219.48-20.32L219.68-20.32L219.68-17.32L219.32-17.32Q216.08-17.32 214.04-14.72L214.04-14.72Q212.12-12.24 212.12-8.80L212.12-8.80L212.12 0L209.12 0L209.12-20L212.12-20L212.12-15.08Q213.08-18.20 216.28-19.68L216.28-19.68Q217.60-20.32 219.48-20.32L219.48-20.32Z M254.24-14.64L251.20-14.64Q250.80-17.76 246.18-17.76Q241.56-17.76 241.56-14.88L241.56-14.88Q241.56-13.68 242.54-13.06Q243.52-12.44 245-12.04Q246.48-11.64 248.22-11.30Q249.96-10.96 251.44-10.34Q252.92-9.72 253.90-8.64Q254.88-7.56 254.88-5.68L254.88-5.68Q254.88-2.76 252.68-1.22Q250.48 0.32 246.72 0.32L246.72 0.32Q242.72 0.32 240.36-1.68L240.36-1.68Q238.20-3.44 238.04-6.28L238.04-6.28L241.16-6.28Q241.44-3.52 244.28-2.56L244.28-2.56Q245.32-2.24 246.34-2.24Q247.36-2.24 248.24-2.36Q249.12-2.48 249.96-2.80L249.96-2.80Q251.88-3.56 251.88-5.40L251.88-5.40Q251.88-6.64 250.90-7.30Q249.92-7.96 248.44-8.38Q246.96-8.80 245.22-9.14Q243.48-9.48 242-10.08Q240.52-10.68 239.54-11.72Q238.56-12.76 238.56-14.60L238.56-14.60Q238.56-17.32 240.54-18.82Q242.52-20.32 246.40-20.32L246.40-20.32Q250.08-20.32 252.20-18.56L252.20-18.56Q253.96-17.08 254.24-14.64L254.24-14.64Z M271.40-20.32L271.40-20.32Q275.88-20.32 278.68-17.32L278.68-17.32Q281.32-14.44 281.32-10L281.32-10Q281.32-5.56 278.68-2.68L278.68-2.68Q275.88 0.32 271.40 0.32L271.40 0.32Q266.92 0.32 264.12-2.68L264.12-2.68Q261.48-5.56 261.48-10L261.48-10Q261.48-14.44 264.12-17.32L264.12-17.32Q266.92-20.32 271.40-20.32ZM271.40-2.40L271.40-2.40Q274.64-2.40 276.52-4.64L276.52-4.64Q278.32-6.76 278.32-10L278.32-10Q278.32-13.24 276.52-15.36L276.52-15.36Q274.64-17.60 271.40-17.60L271.40-17.60Q268.16-17.60 266.28-15.36L266.28-15.36Q264.48-13.24 264.48-10L264.48-10Q264.48-6.76 266.28-4.64L266.28-4.64Q268.16-2.40 271.40-2.40Z M306.72 0L303.72 0L303.72-3.12Q302.64-1.68 301.08-0.68Q299.52 0.32 297.52 0.32Q295.52 0.32 294.08-0.24Q292.64-0.80 291.56-1.92L291.56-1.92Q289.08-4.36 289.08-8.36L289.08-8.36L289.08-20L292.08-20L292.08-8.44Q292.08-5.68 293.64-4.04Q295.20-2.40 297.68-2.40L297.68-2.40Q300.20-2.40 301.96-4.08L301.96-4.08Q303.72-5.80 303.72-8.48L303.72-8.48L303.72-20L306.72-20L306.72 0Z M315.92-20L318.92-20L318.92-16.88Q320-18.32 321.56-19.32Q323.12-20.32 325.12-20.32Q327.12-20.32 328.56-19.76Q330-19.20 331.08-18.08L331.08-18.08Q333.56-15.64 333.56-11.64L333.56-11.64L333.56 0L330.56 0L330.56-11.56Q330.56-14.32 329-15.96Q327.44-17.60 324.96-17.60L324.96-17.60Q322.44-17.60 320.68-15.92L320.68-15.92Q318.92-14.20 318.92-11.52L318.92-11.52L318.92 0L315.92 0L315.92-20Z M358.16 0L358.16-3.20Q355.76 0.32 351 0.32L351 0.32Q346.68 0.32 343.96-2.68L343.96-2.68Q341.32-5.64 341.32-10L341.32-10Q341.32-14.36 343.96-17.32L343.96-17.32Q346.68-20.32 351.20-20.32Q355.72-20.32 358.16-16.76L358.16-16.76L358.16-28L361.16-28L361.16 0L358.16 0ZM351.40-2.40L351.40-2.40Q354.64-2.40 356.52-4.64L356.52-4.64Q358.32-6.76 358.32-10L358.32-10Q358.32-13.24 356.52-15.36L356.52-15.36Q354.64-17.60 351.40-17.60L351.40-17.60Q348.20-17.60 346.20-15.36L346.20-15.36Q344.32-13.24 344.32-10L344.32-10Q344.32-6.76 346.20-4.64L346.20-4.64Q348.20-2.40 351.40-2.40Z"/></g>
</svg>
</g><g opacity="1" transform="rotate(0 97.963 374.7958)">
<svg width="375.3132" height="40" x="97.963" y="374.7958" version="1.1" preserveAspectRatio="none" viewBox="2.9492 -28.0078 262.79299999999995 28.0078">
  <g transform="matrix(1 0 0 1 0 0)" class="companyName"><path id="id-D6z1nYkh10" d="M28.67-5.08L28.67 0L5.51 0Q4.96 0 4.49-0.20Q4.02-0.39 3.68-0.73Q3.34-1.07 3.14-1.54Q2.95-2.01 2.95-2.56L2.95-2.56L2.95-28.01L8.03-28.01L8.03-5.08L28.67-5.08Z M55.31-16.56L55.31-11.45L39.28-11.45L39.28-16.56L55.31-16.56ZM57.60-5.08L57.60 0L39.28 0Q38.22 0 36.97-0.37Q35.72-0.74 34.66-1.59Q33.59-2.44 32.88-3.80Q32.17-5.16 32.17-7.13L32.17-7.13L32.17-25.45Q32.17-25.98 32.36-26.45Q32.56-26.91 32.90-27.27Q33.24-27.62 33.71-27.81Q34.18-28.01 34.73-28.01L34.73-28.01L57.60-28.01L57.60-22.93L37.25-22.93L37.25-7.13Q37.25-6.13 37.77-5.61Q38.30-5.08 39.32-5.08L39.32-5.08L57.60-5.08Z M87.81-28.01L87.81-22.93L76.62-22.93L76.62 0L71.54 0L71.54-22.93L60.33-22.93L60.33-28.01L87.81-28.01Z M95.25-26.84L94.45-16.99L91.21-16.99L90.47-26.84L95.25-26.84Z M126.95-8.24L126.95-8.24Q126.95-6.74 126.57-5.54Q126.19-4.34 125.57-3.42Q124.94-2.50 124.10-1.86Q123.26-1.21 122.36-0.80Q121.46-0.39 120.54-0.20Q119.61 0 118.79 0L118.79 0L99.20 0L99.20-5.08L118.79-5.08Q120.25-5.08 121.06-5.94Q121.88-6.80 121.88-8.24L121.88-8.24Q121.88-8.95 121.66-9.53Q121.45-10.12 121.04-10.55Q120.64-10.98 120.07-11.21Q119.49-11.45 118.79-11.45L118.79-11.45L107.11-11.45Q105.88-11.45 104.45-11.88Q103.03-12.32 101.81-13.30Q100.59-14.28 99.78-15.86Q98.96-17.44 98.96-19.73L98.96-19.73Q98.96-22.01 99.78-23.58Q100.59-25.16 101.81-26.14Q103.03-27.13 104.45-27.57Q105.88-28.01 107.11-28.01L107.11-28.01L124.39-28.01L124.39-22.93L107.11-22.93Q105.66-22.93 104.85-22.05Q104.04-21.17 104.04-19.73L104.04-19.73Q104.04-18.26 104.85-17.41Q105.66-16.56 107.11-16.56L107.11-16.56L118.79-16.56L118.83-16.56Q119.65-16.54 120.57-16.34Q121.48-16.13 122.39-15.70Q123.30-15.27 124.12-14.62Q124.94-13.96 125.58-13.05Q126.21-12.13 126.58-10.94Q126.95-9.75 126.95-8.24Z M171.89-18.59L171.89-16.29Q171.89-14.55 171.46-13.18Q171.04-11.82 170.30-10.77Q169.57-9.73 168.61-8.98Q167.66-8.24 166.61-7.77Q165.57-7.30 164.50-7.09Q163.44-6.88 162.50-6.88L162.50-6.88L151.02-6.88L151.02-11.95L162.50-11.95Q163.48-12.03 164.27-12.35Q165.06-12.68 165.63-13.22Q166.19-13.77 166.50-14.54Q166.82-15.31 166.82-16.29L166.82-16.29L166.82-18.59Q166.72-19.55 166.41-20.35Q166.09-21.15 165.56-21.72Q165.02-22.29 164.26-22.61Q163.50-22.93 162.50-22.93L162.50-22.93L151.05-22.93Q150.04-22.93 149.51-22.40Q148.98-21.88 148.98-20.88L148.98-20.88L148.98 0L143.91 0L143.91-20.88Q143.91-22.83 144.62-24.20Q145.33-25.57 146.40-26.41Q147.46-27.25 148.71-27.63Q149.96-28.01 151.02-28.01L151.02-28.01L162.50-28.01Q164.22-28.01 165.59-27.57Q166.95-27.13 168.00-26.40Q169.04-25.66 169.78-24.71Q170.51-23.75 170.99-22.71Q171.46-21.66 171.68-20.60Q171.89-19.53 171.89-18.59L171.89-18.59Z M201.95-5.08L201.95 0L178.79 0Q178.24 0 177.77-0.20Q177.30-0.39 176.96-0.73Q176.62-1.07 176.43-1.54Q176.23-2.01 176.23-2.56L176.23-2.56L176.23-28.01L181.31-28.01L181.31-5.08L201.95-5.08Z M233.16-25.45L233.16 0L228.09 0L228.09-6.88L210.23-6.88L210.23 0L205.16 0L205.16-14.00Q205.16-17.07 206.21-19.65Q207.27-22.23 209.14-24.08Q211.02-25.94 213.57-26.97Q216.13-28.01 219.16-28.01L219.16-28.01L230.61-28.01Q231.13-28.01 231.60-27.81Q232.07-27.62 232.42-27.27Q232.77-26.91 232.97-26.45Q233.16-25.98 233.16-25.45L233.16-25.45ZM210.23-14.00L210.23-11.95L228.09-11.95L228.09-22.93L219.16-22.93Q218.93-22.93 218.17-22.86Q217.42-22.79 216.44-22.52Q215.45-22.25 214.36-21.68Q213.26-21.11 212.34-20.12Q211.43-19.12 210.83-17.63Q210.23-16.13 210.23-14.00L210.23-14.00Z M265.74-28.01L265.74-18.63Q265.74-16.89 265.30-15.53Q264.86-14.16 264.14-13.12Q263.42-12.07 262.45-11.33Q261.48-10.59 260.45-10.11Q259.41-9.63 258.35-9.41Q257.29-9.20 256.35-9.20L256.35-9.20L254.30-9.20L254.30 0L249.18 0L249.18-9.20L247.15-9.20Q246.21-9.20 245.15-9.41Q244.08-9.63 243.04-10.11Q241.99-10.59 241.04-11.33Q240.08-12.07 239.35-13.12Q238.61-14.16 238.17-15.54Q237.73-16.91 237.73-18.63L237.73-18.63L237.73-28.01L242.81-28.01L242.81-18.63Q242.81-17.64 243.13-16.85Q243.44-16.05 244.00-15.49Q244.57-14.92 245.38-14.62Q246.19-14.32 247.19-14.32L247.19-14.32L256.35-14.32Q257.07-14.43 257.83-14.62Q258.59-14.80 259.22-15.25Q259.84-15.70 260.25-16.50Q260.66-17.30 260.66-18.63L260.66-18.63L260.66-28.01L265.74-28.01Z"/></g>
</svg>
</g><g opacity="1" transform="rotate(0 191.7913 204.0534)">
<svg width="187.6566" height="140.7424" x="191.7913" y="204.0534" version="1.1" preserveAspectRatio="none" viewBox="20 40 160.00001525878906 120">
  <g transform="matrix(1 0 0 1 0 0)"><g><path d="M58.2 75.8c.4.4 1 .4 1.4 0 5-5 4.8-13.2-.3-18.3-2.5-2.5-5.7-3.9-9.2-4-3.4-.1-6.7 1.2-9.1 3.6-.4.4-.4 1 0 1.4.4.4 1 .4 1.4 0 2-2 4.7-3.1 7.6-3 2.9.1 5.7 1.3 7.8 3.4 4.4 4.4 4.5 11.3.3 15.5-.3.3-.3 1 .1 1.4z" data-color="1" class="icon1"></path><path d="M152.5 40H47.6C32.4 40 20 52.4 20 67.7c0 11.3 6.8 21.4 17.2 25.7.5.2 1.1 0 1.3-.5.2-.5 0-1.1-.5-1.3-9.7-4-16-13.3-16-23.8C22 53.5 33.5 42 47.6 42c4.7 0 9.4 1.3 13.4 3.8 3.9 2.4 7.1 5.9 9.3 10 2.9 5.4 3.6 11.5 2.3 17.6v.1c-.3 1.3-.7 2.7-1.3 4-3.1 6.7-10 11.3-18 11.3-10.9 0-19.7-8.5-19.7-19 0-.6-.4-1-1-1s-1 .4-1 1c0 11.6 9.7 21 21.7 21 5.4 0 10.7-2 14.7-5.6 1.1-1 2.1-2 3-3.1.9-1.2 1.5-2.5 2.1-3.8 1-2.1 1.6-4.2 1.8-6.5.2-1.3.3-2.7.3-4.1 0-5.1-1.4-10.2-4.1-14.5 5.1 1.6 16.7 4.5 30.4 4.5 8.6 0 18-1.2 27.3-4.6-2.7 4.4-4.1 9.4-4.1 14.5 0 1.4.1 2.7.3 4.1.2 2.3.9 4.5 1.8 6.5 1.1 2.3 2.3 4.1 4.1 5.9 1.8 1.8 4 3.4 6.3 4.4 2.9 1.4 6.1 2.1 9.4 2.1 12 0 21.7-9.4 21.7-21 0-.6-.4-1-1-1s-1 .4-1 1c0 10.5-8.8 19-19.7 19-8 0-15-4.7-18-11.3-.8-1.9-1.3-3.8-1.6-5.8-.2-1.3-.3-2.6-.3-3.9 0-5.8 2-11.4 5.6-16 .1 0 .1-.1.1-.2 4.7-5.8 11.9-9.6 19.9-9.6 14.1 0 25.6 11.5 25.6 25.7 0 10.5-6.3 19.9-16 23.8-.5.2-.7.8-.5 1.3.2.5.8.7 1.3.5 10.5-4 17.3-14.1 17.3-25.4 0-15.2-12.3-27.6-27.5-27.7zM131 50.2c-28.2 11.8-59.1 1.2-61.8.3-3-3.7-6.9-6.7-11.3-8.5h84.2c-4.3 1.8-8.2 4.6-11.1 8.2z" data-color="1" class="icon1"></path><path d="M150 55.5c2.9-.1 5.6 1 7.6 3 .4.4 1 .4 1.4 0 .4-.4.4-1 0-1.4-2.4-2.4-5.6-3.7-9.1-3.6-3.4.1-6.7 1.5-9.2 4-2.5 2.5-3.9 5.8-4 9.2-.1 3.5 1.2 6.7 3.6 9.1.4.4 1 .4 1.4 0s.4-1 0-1.4c-2-2-3.1-4.7-3-7.7.1-2.9 1.3-5.7 3.4-7.8 2.2-2.2 5-3.4 7.9-3.4z" data-color="1" class="icon1"></path><path d="M58.3 96.4c-.6 0-1 .4-1 1V146c0 .6.4 1 1 1s1-.4 1-1V97.4c0-.6-.5-1-1-1z" data-color="1" class="icon1"></path><path d="M67.9 93.5c-.6 0-1 .4-1 1V146c0 .6.4 1 1 1s1-.4 1-1V94.5c0-.5-.5-1-1-1z" data-color="1" class="icon1"></path><path d="M77.5 91.3c-.6 0-1 .4-1 1V146c0 .6.4 1 1 1s1-.4 1-1V92.4c0-.6-.4-1-1-1.1z" data-color="1" class="icon1"></path><path d="M87.1 87.3c-.6 0-1 .4-1 1v63.9c0 .6.4 1 1 1s1-.4 1-1V88.3c0-.6-.4-1-1-1z" data-color="1" class="icon1"></path><path d="M96.8 83.9c-.6 0-1 .4-1 1V159c0 .6.4 1 1 1s1-.4 1-1V84.9c0-.5-.5-1-1-1z" data-color="1" class="icon1"></path><path d="M106.4 83.9c-.6 0-1 .4-1 1V159c0 .6.4 1 1 1s1-.4 1-1V84.9c0-.5-.4-1-1-1z" data-color="1" class="icon1"></path><path d="M116 87.3c-.6 0-1 .4-1 1v63.9c0 .6.4 1 1 1s1-.4 1-1V88.3c0-.6-.4-1-1-1z" data-color="1" class="icon1"></path><path d="M125.7 91.3c-.6 0-1 .4-1 1V146c0 .6.4 1 1 1s1-.4 1-1V92.4c-.1-.6-.5-1-1-1.1z" data-color="1" class="icon1"></path><path d="M135.3 93.5c-.6 0-1 .4-1 1V146c0 .6.4 1 1 1s1-.4 1-1V94.5c0-.5-.5-1-1-1z" data-color="1" class="icon1"></path><path d="M144.9 97.4c-.6 0-1 .4-1 1V146c0 .6.4 1 1 1s1-.4 1-1V98.4c0-.5-.4-1-1-1z" data-color="1" class="icon1"></path><path d="M126.3 82.6c-.3-.1-26-10.5-53.6 2.3-.5.2-.7.8-.5 1.3.2.4.5.6.9.6.1 0 .3 0 .4-.1 26.8-12.4 51.8-2.4 52-2.3.5.2 1.1 0 1.3-.5.3-.5 0-1.1-.5-1.3z" data-color="1" class="icon1"></path><path d="M84.7 64l-4.5 4.5 4.5 4.5 4.5-4.5-4.5-4.5zM83 68.6l1.7-1.7 1.7 1.7-1.7 1.7-1.7-1.7z" data-color="1" class="icon1"></path><path d="M115 64l-4.5 4.5L115 73l4.5-4.5c0 .1-4.5-4.5-4.5-4.5zm0 6.3l-1.7-1.7 1.7-1.7 1.7 1.7-1.7 1.7z" data-color="1" class="icon1"></path><path d="M100.9 61.4l-6.3 6.3 6.3 6.3 6.3-6.3-6.3-6.3zm0 9.8l-3.5-3.5 3.5-3.5 3.5 3.5-3.5 3.5z" data-color="1" class="icon1"></path></g></g>
</svg>
</g></svg></svg>